<mxfile host="Electron" agent="Mozilla/5.0 (Windows NT 10.0; Win64; x64) AppleWebKit/537.36 (KHTML, like Gecko) draw.io/24.7.17 Chrome/128.0.6613.36 Electron/32.0.1 Safari/537.36" version="24.7.17">
  <diagram name="Page-1" id="iMiI5yTCLS9RFkawxw4-">
    <mxGraphModel dx="2229" dy="681" grid="1" gridSize="10" guides="1" tooltips="1" connect="1" arrows="1" fold="1" page="1" pageScale="1" pageWidth="850" pageHeight="1100" math="0" shadow="0">
      <root>
        <mxCell id="0" />
        <mxCell id="1" parent="0" />
        <mxCell id="y__F1TyNGtWhiDIaF_vZ-1" value="" style="shape=table;startSize=0;container=1;collapsible=0;childLayout=tableLayout;" parent="1" vertex="1">
          <mxGeometry x="-830" y="180" width="970" height="240" as="geometry" />
        </mxCell>
        <mxCell id="y__F1TyNGtWhiDIaF_vZ-2" value="" style="shape=tableRow;horizontal=0;startSize=0;swimlaneHead=0;swimlaneBody=0;strokeColor=inherit;top=0;left=0;bottom=0;right=0;collapsible=0;dropTarget=0;fillColor=none;points=[[0,0.5],[1,0.5]];portConstraint=eastwest;" parent="y__F1TyNGtWhiDIaF_vZ-1" vertex="1">
          <mxGeometry width="970" height="40" as="geometry" />
        </mxCell>
        <mxCell id="y__F1TyNGtWhiDIaF_vZ-3" value="order_id&lt;span style=&quot;white-space: pre; font-size: 14px;&quot;&gt;&#x9;&lt;/span&gt;&lt;span style=&quot;white-space: pre; font-size: 14px;&quot;&gt;&#x9;&lt;/span&gt;" style="shape=partialRectangle;html=1;whiteSpace=wrap;connectable=0;strokeColor=inherit;overflow=hidden;fillColor=none;top=0;left=0;bottom=0;right=0;pointerEvents=1;fontStyle=1;fontSize=14;" parent="y__F1TyNGtWhiDIaF_vZ-2" vertex="1">
          <mxGeometry width="90" height="40" as="geometry">
            <mxRectangle width="90" height="40" as="alternateBounds" />
          </mxGeometry>
        </mxCell>
        <mxCell id="y__F1TyNGtWhiDIaF_vZ-4" value="customer_id" style="shape=partialRectangle;html=1;whiteSpace=wrap;connectable=0;strokeColor=inherit;overflow=hidden;fillColor=none;top=0;left=0;bottom=0;right=0;pointerEvents=1;fontStyle=1;fontSize=14;" parent="y__F1TyNGtWhiDIaF_vZ-2" vertex="1">
          <mxGeometry x="90" width="110" height="40" as="geometry">
            <mxRectangle width="110" height="40" as="alternateBounds" />
          </mxGeometry>
        </mxCell>
        <mxCell id="y__F1TyNGtWhiDIaF_vZ-5" value="customer_name" style="shape=partialRectangle;html=1;whiteSpace=wrap;connectable=0;strokeColor=inherit;overflow=hidden;fillColor=none;top=0;left=0;bottom=0;right=0;pointerEvents=1;fontStyle=1;fontSize=14;" parent="y__F1TyNGtWhiDIaF_vZ-2" vertex="1">
          <mxGeometry x="200" width="120" height="40" as="geometry">
            <mxRectangle width="120" height="40" as="alternateBounds" />
          </mxGeometry>
        </mxCell>
        <mxCell id="y__F1TyNGtWhiDIaF_vZ-6" value="customer_address" style="shape=partialRectangle;html=1;whiteSpace=wrap;connectable=0;strokeColor=inherit;overflow=hidden;fillColor=none;top=0;left=0;bottom=0;right=0;pointerEvents=1;fontStyle=1;fontSize=14;" parent="y__F1TyNGtWhiDIaF_vZ-2" vertex="1">
          <mxGeometry x="320" width="130" height="40" as="geometry">
            <mxRectangle width="130" height="40" as="alternateBounds" />
          </mxGeometry>
        </mxCell>
        <mxCell id="y__F1TyNGtWhiDIaF_vZ-7" value="product_id" style="shape=partialRectangle;html=1;whiteSpace=wrap;connectable=0;strokeColor=inherit;overflow=hidden;fillColor=none;top=0;left=0;bottom=0;right=0;pointerEvents=1;fontStyle=1;fontSize=14;" parent="y__F1TyNGtWhiDIaF_vZ-2" vertex="1">
          <mxGeometry x="450" width="89" height="40" as="geometry">
            <mxRectangle width="89" height="40" as="alternateBounds" />
          </mxGeometry>
        </mxCell>
        <mxCell id="y__F1TyNGtWhiDIaF_vZ-8" value="product_name" style="shape=partialRectangle;html=1;whiteSpace=wrap;connectable=0;strokeColor=inherit;overflow=hidden;fillColor=none;top=0;left=0;bottom=0;right=0;pointerEvents=1;fontStyle=1;fontSize=14;" parent="y__F1TyNGtWhiDIaF_vZ-2" vertex="1">
          <mxGeometry x="539" width="108" height="40" as="geometry">
            <mxRectangle width="108" height="40" as="alternateBounds" />
          </mxGeometry>
        </mxCell>
        <mxCell id="y__F1TyNGtWhiDIaF_vZ-9" value="product_category" style="shape=partialRectangle;html=1;whiteSpace=wrap;connectable=0;strokeColor=inherit;overflow=hidden;fillColor=none;top=0;left=0;bottom=0;right=0;pointerEvents=1;fontStyle=1;fontSize=14;" parent="y__F1TyNGtWhiDIaF_vZ-2" vertex="1">
          <mxGeometry x="647" width="133" height="40" as="geometry">
            <mxRectangle width="133" height="40" as="alternateBounds" />
          </mxGeometry>
        </mxCell>
        <mxCell id="y__F1TyNGtWhiDIaF_vZ-10" value="quantity" style="shape=partialRectangle;html=1;whiteSpace=wrap;connectable=0;strokeColor=inherit;overflow=hidden;fillColor=none;top=0;left=0;bottom=0;right=0;pointerEvents=1;fontStyle=1;fontSize=14;" parent="y__F1TyNGtWhiDIaF_vZ-2" vertex="1">
          <mxGeometry x="780" width="82" height="40" as="geometry">
            <mxRectangle width="82" height="40" as="alternateBounds" />
          </mxGeometry>
        </mxCell>
        <mxCell id="y__F1TyNGtWhiDIaF_vZ-11" value="order_date" style="shape=partialRectangle;html=1;whiteSpace=wrap;connectable=0;strokeColor=inherit;overflow=hidden;fillColor=none;top=0;left=0;bottom=0;right=0;pointerEvents=1;fontStyle=1;fontSize=14;" parent="y__F1TyNGtWhiDIaF_vZ-2" vertex="1">
          <mxGeometry x="862" width="108" height="40" as="geometry">
            <mxRectangle width="108" height="40" as="alternateBounds" />
          </mxGeometry>
        </mxCell>
        <mxCell id="y__F1TyNGtWhiDIaF_vZ-12" value="" style="shape=tableRow;horizontal=0;startSize=0;swimlaneHead=0;swimlaneBody=0;strokeColor=inherit;top=0;left=0;bottom=0;right=0;collapsible=0;dropTarget=0;fillColor=none;points=[[0,0.5],[1,0.5]];portConstraint=eastwest;" parent="y__F1TyNGtWhiDIaF_vZ-1" vertex="1">
          <mxGeometry y="40" width="970" height="40" as="geometry" />
        </mxCell>
        <mxCell id="y__F1TyNGtWhiDIaF_vZ-13" value="1" style="shape=partialRectangle;html=1;whiteSpace=wrap;connectable=0;strokeColor=inherit;overflow=hidden;fillColor=none;top=0;left=0;bottom=0;right=0;pointerEvents=1;" parent="y__F1TyNGtWhiDIaF_vZ-12" vertex="1">
          <mxGeometry width="90" height="40" as="geometry">
            <mxRectangle width="90" height="40" as="alternateBounds" />
          </mxGeometry>
        </mxCell>
        <mxCell id="y__F1TyNGtWhiDIaF_vZ-14" value="100" style="shape=partialRectangle;html=1;whiteSpace=wrap;connectable=0;strokeColor=inherit;overflow=hidden;fillColor=none;top=0;left=0;bottom=0;right=0;pointerEvents=1;" parent="y__F1TyNGtWhiDIaF_vZ-12" vertex="1">
          <mxGeometry x="90" width="110" height="40" as="geometry">
            <mxRectangle width="110" height="40" as="alternateBounds" />
          </mxGeometry>
        </mxCell>
        <mxCell id="y__F1TyNGtWhiDIaF_vZ-15" value="John Doe&lt;span style=&quot;white-space: pre;&quot;&gt;&#x9;&lt;/span&gt;" style="shape=partialRectangle;html=1;whiteSpace=wrap;connectable=0;strokeColor=inherit;overflow=hidden;fillColor=none;top=0;left=0;bottom=0;right=0;pointerEvents=1;" parent="y__F1TyNGtWhiDIaF_vZ-12" vertex="1">
          <mxGeometry x="200" width="120" height="40" as="geometry">
            <mxRectangle width="120" height="40" as="alternateBounds" />
          </mxGeometry>
        </mxCell>
        <mxCell id="y__F1TyNGtWhiDIaF_vZ-16" value="123 Elm St, NY" style="shape=partialRectangle;html=1;whiteSpace=wrap;connectable=0;strokeColor=inherit;overflow=hidden;fillColor=none;top=0;left=0;bottom=0;right=0;pointerEvents=1;" parent="y__F1TyNGtWhiDIaF_vZ-12" vertex="1">
          <mxGeometry x="320" width="130" height="40" as="geometry">
            <mxRectangle width="130" height="40" as="alternateBounds" />
          </mxGeometry>
        </mxCell>
        <mxCell id="y__F1TyNGtWhiDIaF_vZ-17" value="2001" style="shape=partialRectangle;html=1;whiteSpace=wrap;connectable=0;strokeColor=inherit;overflow=hidden;fillColor=none;top=0;left=0;bottom=0;right=0;pointerEvents=1;" parent="y__F1TyNGtWhiDIaF_vZ-12" vertex="1">
          <mxGeometry x="450" width="89" height="40" as="geometry">
            <mxRectangle width="89" height="40" as="alternateBounds" />
          </mxGeometry>
        </mxCell>
        <mxCell id="y__F1TyNGtWhiDIaF_vZ-18" value="Widget" style="shape=partialRectangle;html=1;whiteSpace=wrap;connectable=0;strokeColor=inherit;overflow=hidden;fillColor=none;top=0;left=0;bottom=0;right=0;pointerEvents=1;" parent="y__F1TyNGtWhiDIaF_vZ-12" vertex="1">
          <mxGeometry x="539" width="108" height="40" as="geometry">
            <mxRectangle width="108" height="40" as="alternateBounds" />
          </mxGeometry>
        </mxCell>
        <mxCell id="y__F1TyNGtWhiDIaF_vZ-19" value="Gadgets" style="shape=partialRectangle;html=1;whiteSpace=wrap;connectable=0;strokeColor=inherit;overflow=hidden;fillColor=none;top=0;left=0;bottom=0;right=0;pointerEvents=1;" parent="y__F1TyNGtWhiDIaF_vZ-12" vertex="1">
          <mxGeometry x="647" width="133" height="40" as="geometry">
            <mxRectangle width="133" height="40" as="alternateBounds" />
          </mxGeometry>
        </mxCell>
        <mxCell id="y__F1TyNGtWhiDIaF_vZ-20" value="5" style="shape=partialRectangle;html=1;whiteSpace=wrap;connectable=0;strokeColor=inherit;overflow=hidden;fillColor=none;top=0;left=0;bottom=0;right=0;pointerEvents=1;" parent="y__F1TyNGtWhiDIaF_vZ-12" vertex="1">
          <mxGeometry x="780" width="82" height="40" as="geometry">
            <mxRectangle width="82" height="40" as="alternateBounds" />
          </mxGeometry>
        </mxCell>
        <mxCell id="y__F1TyNGtWhiDIaF_vZ-21" value="2024-05-01" style="shape=partialRectangle;html=1;whiteSpace=wrap;connectable=0;strokeColor=inherit;overflow=hidden;fillColor=none;top=0;left=0;bottom=0;right=0;pointerEvents=1;" parent="y__F1TyNGtWhiDIaF_vZ-12" vertex="1">
          <mxGeometry x="862" width="108" height="40" as="geometry">
            <mxRectangle width="108" height="40" as="alternateBounds" />
          </mxGeometry>
        </mxCell>
        <mxCell id="y__F1TyNGtWhiDIaF_vZ-22" value="" style="shape=tableRow;horizontal=0;startSize=0;swimlaneHead=0;swimlaneBody=0;strokeColor=inherit;top=0;left=0;bottom=0;right=0;collapsible=0;dropTarget=0;fillColor=none;points=[[0,0.5],[1,0.5]];portConstraint=eastwest;" parent="y__F1TyNGtWhiDIaF_vZ-1" vertex="1">
          <mxGeometry y="80" width="970" height="40" as="geometry" />
        </mxCell>
        <mxCell id="y__F1TyNGtWhiDIaF_vZ-23" value="2" style="shape=partialRectangle;html=1;whiteSpace=wrap;connectable=0;strokeColor=inherit;overflow=hidden;fillColor=none;top=0;left=0;bottom=0;right=0;pointerEvents=1;" parent="y__F1TyNGtWhiDIaF_vZ-22" vertex="1">
          <mxGeometry width="90" height="40" as="geometry">
            <mxRectangle width="90" height="40" as="alternateBounds" />
          </mxGeometry>
        </mxCell>
        <mxCell id="y__F1TyNGtWhiDIaF_vZ-24" value="101" style="shape=partialRectangle;html=1;whiteSpace=wrap;connectable=0;strokeColor=inherit;overflow=hidden;fillColor=none;top=0;left=0;bottom=0;right=0;pointerEvents=1;" parent="y__F1TyNGtWhiDIaF_vZ-22" vertex="1">
          <mxGeometry x="90" width="110" height="40" as="geometry">
            <mxRectangle width="110" height="40" as="alternateBounds" />
          </mxGeometry>
        </mxCell>
        <mxCell id="y__F1TyNGtWhiDIaF_vZ-25" value="Jane Smith" style="shape=partialRectangle;html=1;whiteSpace=wrap;connectable=0;strokeColor=inherit;overflow=hidden;fillColor=none;top=0;left=0;bottom=0;right=0;pointerEvents=1;" parent="y__F1TyNGtWhiDIaF_vZ-22" vertex="1">
          <mxGeometry x="200" width="120" height="40" as="geometry">
            <mxRectangle width="120" height="40" as="alternateBounds" />
          </mxGeometry>
        </mxCell>
        <mxCell id="y__F1TyNGtWhiDIaF_vZ-26" value="456 Oak Str, LD" style="shape=partialRectangle;html=1;whiteSpace=wrap;connectable=0;strokeColor=inherit;overflow=hidden;fillColor=none;top=0;left=0;bottom=0;right=0;pointerEvents=1;" parent="y__F1TyNGtWhiDIaF_vZ-22" vertex="1">
          <mxGeometry x="320" width="130" height="40" as="geometry">
            <mxRectangle width="130" height="40" as="alternateBounds" />
          </mxGeometry>
        </mxCell>
        <mxCell id="y__F1TyNGtWhiDIaF_vZ-27" value="2002" style="shape=partialRectangle;html=1;whiteSpace=wrap;connectable=0;strokeColor=inherit;overflow=hidden;fillColor=none;top=0;left=0;bottom=0;right=0;pointerEvents=1;" parent="y__F1TyNGtWhiDIaF_vZ-22" vertex="1">
          <mxGeometry x="450" width="89" height="40" as="geometry">
            <mxRectangle width="89" height="40" as="alternateBounds" />
          </mxGeometry>
        </mxCell>
        <mxCell id="y__F1TyNGtWhiDIaF_vZ-28" value="Thingamajig" style="shape=partialRectangle;html=1;whiteSpace=wrap;connectable=0;strokeColor=inherit;overflow=hidden;fillColor=none;top=0;left=0;bottom=0;right=0;pointerEvents=1;" parent="y__F1TyNGtWhiDIaF_vZ-22" vertex="1">
          <mxGeometry x="539" width="108" height="40" as="geometry">
            <mxRectangle width="108" height="40" as="alternateBounds" />
          </mxGeometry>
        </mxCell>
        <mxCell id="y__F1TyNGtWhiDIaF_vZ-29" value="Gadgets" style="shape=partialRectangle;html=1;whiteSpace=wrap;connectable=0;strokeColor=inherit;overflow=hidden;fillColor=none;top=0;left=0;bottom=0;right=0;pointerEvents=1;" parent="y__F1TyNGtWhiDIaF_vZ-22" vertex="1">
          <mxGeometry x="647" width="133" height="40" as="geometry">
            <mxRectangle width="133" height="40" as="alternateBounds" />
          </mxGeometry>
        </mxCell>
        <mxCell id="y__F1TyNGtWhiDIaF_vZ-30" value="2" style="shape=partialRectangle;html=1;whiteSpace=wrap;connectable=0;strokeColor=inherit;overflow=hidden;fillColor=none;top=0;left=0;bottom=0;right=0;pointerEvents=1;" parent="y__F1TyNGtWhiDIaF_vZ-22" vertex="1">
          <mxGeometry x="780" width="82" height="40" as="geometry">
            <mxRectangle width="82" height="40" as="alternateBounds" />
          </mxGeometry>
        </mxCell>
        <mxCell id="y__F1TyNGtWhiDIaF_vZ-31" value="2024-05-02" style="shape=partialRectangle;html=1;whiteSpace=wrap;connectable=0;strokeColor=inherit;overflow=hidden;fillColor=none;top=0;left=0;bottom=0;right=0;pointerEvents=1;" parent="y__F1TyNGtWhiDIaF_vZ-22" vertex="1">
          <mxGeometry x="862" width="108" height="40" as="geometry">
            <mxRectangle width="108" height="40" as="alternateBounds" />
          </mxGeometry>
        </mxCell>
        <mxCell id="y__F1TyNGtWhiDIaF_vZ-32" value="" style="shape=tableRow;horizontal=0;startSize=0;swimlaneHead=0;swimlaneBody=0;strokeColor=inherit;top=0;left=0;bottom=0;right=0;collapsible=0;dropTarget=0;fillColor=none;points=[[0,0.5],[1,0.5]];portConstraint=eastwest;" parent="y__F1TyNGtWhiDIaF_vZ-1" vertex="1">
          <mxGeometry y="120" width="970" height="40" as="geometry" />
        </mxCell>
        <mxCell id="y__F1TyNGtWhiDIaF_vZ-33" value="3" style="shape=partialRectangle;html=1;whiteSpace=wrap;connectable=0;strokeColor=inherit;overflow=hidden;fillColor=none;top=0;left=0;bottom=0;right=0;pointerEvents=1;" parent="y__F1TyNGtWhiDIaF_vZ-32" vertex="1">
          <mxGeometry width="90" height="40" as="geometry">
            <mxRectangle width="90" height="40" as="alternateBounds" />
          </mxGeometry>
        </mxCell>
        <mxCell id="y__F1TyNGtWhiDIaF_vZ-34" value="100" style="shape=partialRectangle;html=1;whiteSpace=wrap;connectable=0;strokeColor=inherit;overflow=hidden;fillColor=none;top=0;left=0;bottom=0;right=0;pointerEvents=1;" parent="y__F1TyNGtWhiDIaF_vZ-32" vertex="1">
          <mxGeometry x="90" width="110" height="40" as="geometry">
            <mxRectangle width="110" height="40" as="alternateBounds" />
          </mxGeometry>
        </mxCell>
        <mxCell id="y__F1TyNGtWhiDIaF_vZ-35" value="Johannes Petrus" style="shape=partialRectangle;html=1;whiteSpace=wrap;connectable=0;strokeColor=inherit;overflow=hidden;fillColor=none;top=0;left=0;bottom=0;right=0;pointerEvents=1;" parent="y__F1TyNGtWhiDIaF_vZ-32" vertex="1">
          <mxGeometry x="200" width="120" height="40" as="geometry">
            <mxRectangle width="120" height="40" as="alternateBounds" />
          </mxGeometry>
        </mxCell>
        <mxCell id="y__F1TyNGtWhiDIaF_vZ-36" value="789 Pine Str, CT" style="shape=partialRectangle;html=1;whiteSpace=wrap;connectable=0;strokeColor=inherit;overflow=hidden;fillColor=none;top=0;left=0;bottom=0;right=0;pointerEvents=1;" parent="y__F1TyNGtWhiDIaF_vZ-32" vertex="1">
          <mxGeometry x="320" width="130" height="40" as="geometry">
            <mxRectangle width="130" height="40" as="alternateBounds" />
          </mxGeometry>
        </mxCell>
        <mxCell id="y__F1TyNGtWhiDIaF_vZ-37" value="2003" style="shape=partialRectangle;html=1;whiteSpace=wrap;connectable=0;strokeColor=inherit;overflow=hidden;fillColor=none;top=0;left=0;bottom=0;right=0;pointerEvents=1;" parent="y__F1TyNGtWhiDIaF_vZ-32" vertex="1">
          <mxGeometry x="450" width="89" height="40" as="geometry">
            <mxRectangle width="89" height="40" as="alternateBounds" />
          </mxGeometry>
        </mxCell>
        <mxCell id="y__F1TyNGtWhiDIaF_vZ-38" value="Dookickey" style="shape=partialRectangle;html=1;whiteSpace=wrap;connectable=0;strokeColor=inherit;overflow=hidden;fillColor=none;top=0;left=0;bottom=0;right=0;pointerEvents=1;" parent="y__F1TyNGtWhiDIaF_vZ-32" vertex="1">
          <mxGeometry x="539" width="108" height="40" as="geometry">
            <mxRectangle width="108" height="40" as="alternateBounds" />
          </mxGeometry>
        </mxCell>
        <mxCell id="y__F1TyNGtWhiDIaF_vZ-39" value="Tools" style="shape=partialRectangle;html=1;whiteSpace=wrap;connectable=0;strokeColor=inherit;overflow=hidden;fillColor=none;top=0;left=0;bottom=0;right=0;pointerEvents=1;" parent="y__F1TyNGtWhiDIaF_vZ-32" vertex="1">
          <mxGeometry x="647" width="133" height="40" as="geometry">
            <mxRectangle width="133" height="40" as="alternateBounds" />
          </mxGeometry>
        </mxCell>
        <mxCell id="y__F1TyNGtWhiDIaF_vZ-40" value="1" style="shape=partialRectangle;html=1;whiteSpace=wrap;connectable=0;strokeColor=inherit;overflow=hidden;fillColor=none;top=0;left=0;bottom=0;right=0;pointerEvents=1;" parent="y__F1TyNGtWhiDIaF_vZ-32" vertex="1">
          <mxGeometry x="780" width="82" height="40" as="geometry">
            <mxRectangle width="82" height="40" as="alternateBounds" />
          </mxGeometry>
        </mxCell>
        <mxCell id="y__F1TyNGtWhiDIaF_vZ-41" value="2024-05-03" style="shape=partialRectangle;html=1;whiteSpace=wrap;connectable=0;strokeColor=inherit;overflow=hidden;fillColor=none;top=0;left=0;bottom=0;right=0;pointerEvents=1;" parent="y__F1TyNGtWhiDIaF_vZ-32" vertex="1">
          <mxGeometry x="862" width="108" height="40" as="geometry">
            <mxRectangle width="108" height="40" as="alternateBounds" />
          </mxGeometry>
        </mxCell>
        <mxCell id="y__F1TyNGtWhiDIaF_vZ-42" value="" style="shape=tableRow;horizontal=0;startSize=0;swimlaneHead=0;swimlaneBody=0;strokeColor=inherit;top=0;left=0;bottom=0;right=0;collapsible=0;dropTarget=0;fillColor=none;points=[[0,0.5],[1,0.5]];portConstraint=eastwest;" parent="y__F1TyNGtWhiDIaF_vZ-1" vertex="1">
          <mxGeometry y="160" width="970" height="40" as="geometry" />
        </mxCell>
        <mxCell id="y__F1TyNGtWhiDIaF_vZ-43" value="4" style="shape=partialRectangle;html=1;whiteSpace=wrap;connectable=0;strokeColor=inherit;overflow=hidden;fillColor=none;top=0;left=0;bottom=0;right=0;pointerEvents=1;" parent="y__F1TyNGtWhiDIaF_vZ-42" vertex="1">
          <mxGeometry width="90" height="40" as="geometry">
            <mxRectangle width="90" height="40" as="alternateBounds" />
          </mxGeometry>
        </mxCell>
        <mxCell id="y__F1TyNGtWhiDIaF_vZ-44" value="102" style="shape=partialRectangle;html=1;whiteSpace=wrap;connectable=0;strokeColor=inherit;overflow=hidden;fillColor=none;top=0;left=0;bottom=0;right=0;pointerEvents=1;" parent="y__F1TyNGtWhiDIaF_vZ-42" vertex="1">
          <mxGeometry x="90" width="110" height="40" as="geometry">
            <mxRectangle width="110" height="40" as="alternateBounds" />
          </mxGeometry>
        </mxCell>
        <mxCell id="y__F1TyNGtWhiDIaF_vZ-45" value="Lerato Masego" style="shape=partialRectangle;html=1;whiteSpace=wrap;connectable=0;strokeColor=inherit;overflow=hidden;fillColor=none;top=0;left=0;bottom=0;right=0;pointerEvents=1;" parent="y__F1TyNGtWhiDIaF_vZ-42" vertex="1">
          <mxGeometry x="200" width="120" height="40" as="geometry">
            <mxRectangle width="120" height="40" as="alternateBounds" />
          </mxGeometry>
        </mxCell>
        <mxCell id="y__F1TyNGtWhiDIaF_vZ-46" value="258 Maple Str, PTA" style="shape=partialRectangle;html=1;whiteSpace=wrap;connectable=0;strokeColor=inherit;overflow=hidden;fillColor=none;top=0;left=0;bottom=0;right=0;pointerEvents=1;" parent="y__F1TyNGtWhiDIaF_vZ-42" vertex="1">
          <mxGeometry x="320" width="130" height="40" as="geometry">
            <mxRectangle width="130" height="40" as="alternateBounds" />
          </mxGeometry>
        </mxCell>
        <mxCell id="y__F1TyNGtWhiDIaF_vZ-47" value="2001" style="shape=partialRectangle;html=1;whiteSpace=wrap;connectable=0;strokeColor=inherit;overflow=hidden;fillColor=none;top=0;left=0;bottom=0;right=0;pointerEvents=1;" parent="y__F1TyNGtWhiDIaF_vZ-42" vertex="1">
          <mxGeometry x="450" width="89" height="40" as="geometry">
            <mxRectangle width="89" height="40" as="alternateBounds" />
          </mxGeometry>
        </mxCell>
        <mxCell id="y__F1TyNGtWhiDIaF_vZ-48" value="Widget" style="shape=partialRectangle;html=1;whiteSpace=wrap;connectable=0;strokeColor=inherit;overflow=hidden;fillColor=none;top=0;left=0;bottom=0;right=0;pointerEvents=1;" parent="y__F1TyNGtWhiDIaF_vZ-42" vertex="1">
          <mxGeometry x="539" width="108" height="40" as="geometry">
            <mxRectangle width="108" height="40" as="alternateBounds" />
          </mxGeometry>
        </mxCell>
        <mxCell id="y__F1TyNGtWhiDIaF_vZ-49" value="Gadgets" style="shape=partialRectangle;html=1;whiteSpace=wrap;connectable=0;strokeColor=inherit;overflow=hidden;fillColor=none;top=0;left=0;bottom=0;right=0;pointerEvents=1;" parent="y__F1TyNGtWhiDIaF_vZ-42" vertex="1">
          <mxGeometry x="647" width="133" height="40" as="geometry">
            <mxRectangle width="133" height="40" as="alternateBounds" />
          </mxGeometry>
        </mxCell>
        <mxCell id="y__F1TyNGtWhiDIaF_vZ-50" value="10" style="shape=partialRectangle;html=1;whiteSpace=wrap;connectable=0;strokeColor=inherit;overflow=hidden;fillColor=none;top=0;left=0;bottom=0;right=0;pointerEvents=1;" parent="y__F1TyNGtWhiDIaF_vZ-42" vertex="1">
          <mxGeometry x="780" width="82" height="40" as="geometry">
            <mxRectangle width="82" height="40" as="alternateBounds" />
          </mxGeometry>
        </mxCell>
        <mxCell id="y__F1TyNGtWhiDIaF_vZ-51" value="2024-05-04" style="shape=partialRectangle;html=1;whiteSpace=wrap;connectable=0;strokeColor=inherit;overflow=hidden;fillColor=none;top=0;left=0;bottom=0;right=0;pointerEvents=1;" parent="y__F1TyNGtWhiDIaF_vZ-42" vertex="1">
          <mxGeometry x="862" width="108" height="40" as="geometry">
            <mxRectangle width="108" height="40" as="alternateBounds" />
          </mxGeometry>
        </mxCell>
        <mxCell id="y__F1TyNGtWhiDIaF_vZ-52" value="" style="shape=tableRow;horizontal=0;startSize=0;swimlaneHead=0;swimlaneBody=0;strokeColor=inherit;top=0;left=0;bottom=0;right=0;collapsible=0;dropTarget=0;fillColor=none;points=[[0,0.5],[1,0.5]];portConstraint=eastwest;" parent="y__F1TyNGtWhiDIaF_vZ-1" vertex="1">
          <mxGeometry y="200" width="970" height="40" as="geometry" />
        </mxCell>
        <mxCell id="y__F1TyNGtWhiDIaF_vZ-53" value="5" style="shape=partialRectangle;html=1;whiteSpace=wrap;connectable=0;strokeColor=inherit;overflow=hidden;fillColor=none;top=0;left=0;bottom=0;right=0;pointerEvents=1;" parent="y__F1TyNGtWhiDIaF_vZ-52" vertex="1">
          <mxGeometry width="90" height="40" as="geometry">
            <mxRectangle width="90" height="40" as="alternateBounds" />
          </mxGeometry>
        </mxCell>
        <mxCell id="y__F1TyNGtWhiDIaF_vZ-54" value="103" style="shape=partialRectangle;html=1;whiteSpace=wrap;connectable=0;strokeColor=inherit;overflow=hidden;fillColor=none;top=0;left=0;bottom=0;right=0;pointerEvents=1;" parent="y__F1TyNGtWhiDIaF_vZ-52" vertex="1">
          <mxGeometry x="90" width="110" height="40" as="geometry">
            <mxRectangle width="110" height="40" as="alternateBounds" />
          </mxGeometry>
        </mxCell>
        <mxCell id="y__F1TyNGtWhiDIaF_vZ-55" value="Tracy Kyle" style="shape=partialRectangle;html=1;whiteSpace=wrap;connectable=0;strokeColor=inherit;overflow=hidden;fillColor=none;top=0;left=0;bottom=0;right=0;pointerEvents=1;" parent="y__F1TyNGtWhiDIaF_vZ-52" vertex="1">
          <mxGeometry x="200" width="120" height="40" as="geometry">
            <mxRectangle width="120" height="40" as="alternateBounds" />
          </mxGeometry>
        </mxCell>
        <mxCell id="y__F1TyNGtWhiDIaF_vZ-56" value="951 Jon Str, DBN" style="shape=partialRectangle;html=1;whiteSpace=wrap;connectable=0;strokeColor=inherit;overflow=hidden;fillColor=none;top=0;left=0;bottom=0;right=0;pointerEvents=1;" parent="y__F1TyNGtWhiDIaF_vZ-52" vertex="1">
          <mxGeometry x="320" width="130" height="40" as="geometry">
            <mxRectangle width="130" height="40" as="alternateBounds" />
          </mxGeometry>
        </mxCell>
        <mxCell id="y__F1TyNGtWhiDIaF_vZ-57" value="2004" style="shape=partialRectangle;html=1;whiteSpace=wrap;connectable=0;strokeColor=inherit;overflow=hidden;fillColor=none;top=0;left=0;bottom=0;right=0;pointerEvents=1;" parent="y__F1TyNGtWhiDIaF_vZ-52" vertex="1">
          <mxGeometry x="450" width="89" height="40" as="geometry">
            <mxRectangle width="89" height="40" as="alternateBounds" />
          </mxGeometry>
        </mxCell>
        <mxCell id="y__F1TyNGtWhiDIaF_vZ-58" value="Gizmo" style="shape=partialRectangle;html=1;whiteSpace=wrap;connectable=0;strokeColor=inherit;overflow=hidden;fillColor=none;top=0;left=0;bottom=0;right=0;pointerEvents=1;" parent="y__F1TyNGtWhiDIaF_vZ-52" vertex="1">
          <mxGeometry x="539" width="108" height="40" as="geometry">
            <mxRectangle width="108" height="40" as="alternateBounds" />
          </mxGeometry>
        </mxCell>
        <mxCell id="y__F1TyNGtWhiDIaF_vZ-59" value="Gadgets" style="shape=partialRectangle;html=1;whiteSpace=wrap;connectable=0;strokeColor=inherit;overflow=hidden;fillColor=none;top=0;left=0;bottom=0;right=0;pointerEvents=1;" parent="y__F1TyNGtWhiDIaF_vZ-52" vertex="1">
          <mxGeometry x="647" width="133" height="40" as="geometry">
            <mxRectangle width="133" height="40" as="alternateBounds" />
          </mxGeometry>
        </mxCell>
        <mxCell id="y__F1TyNGtWhiDIaF_vZ-60" value="3" style="shape=partialRectangle;html=1;whiteSpace=wrap;connectable=0;strokeColor=inherit;overflow=hidden;fillColor=none;top=0;left=0;bottom=0;right=0;pointerEvents=1;" parent="y__F1TyNGtWhiDIaF_vZ-52" vertex="1">
          <mxGeometry x="780" width="82" height="40" as="geometry">
            <mxRectangle width="82" height="40" as="alternateBounds" />
          </mxGeometry>
        </mxCell>
        <mxCell id="y__F1TyNGtWhiDIaF_vZ-61" value="2024-05-05" style="shape=partialRectangle;html=1;whiteSpace=wrap;connectable=0;strokeColor=inherit;overflow=hidden;fillColor=none;top=0;left=0;bottom=0;right=0;pointerEvents=1;" parent="y__F1TyNGtWhiDIaF_vZ-52" vertex="1">
          <mxGeometry x="862" width="108" height="40" as="geometry">
            <mxRectangle width="108" height="40" as="alternateBounds" />
          </mxGeometry>
        </mxCell>
        <mxCell id="y__F1TyNGtWhiDIaF_vZ-71" value="" style="shape=table;startSize=0;container=1;collapsible=0;childLayout=tableLayout;" parent="1" vertex="1">
          <mxGeometry x="-830" y="515" width="1090" height="70" as="geometry" />
        </mxCell>
        <mxCell id="y__F1TyNGtWhiDIaF_vZ-72" value="" style="shape=tableRow;horizontal=0;startSize=0;swimlaneHead=0;swimlaneBody=0;strokeColor=inherit;top=0;left=0;bottom=0;right=0;collapsible=0;dropTarget=0;fillColor=none;points=[[0,0.5],[1,0.5]];portConstraint=eastwest;" parent="y__F1TyNGtWhiDIaF_vZ-71" vertex="1">
          <mxGeometry width="1090" height="70" as="geometry" />
        </mxCell>
        <mxCell id="y__F1TyNGtWhiDIaF_vZ-73" value="order_id&lt;span style=&quot;white-space: pre; font-size: 14px;&quot;&gt;&#x9;&lt;/span&gt;&lt;span style=&quot;white-space: pre; font-size: 14px;&quot;&gt;&#x9;&lt;/span&gt;" style="shape=partialRectangle;html=1;whiteSpace=wrap;connectable=0;strokeColor=inherit;overflow=hidden;fillColor=none;top=0;left=0;bottom=0;right=0;pointerEvents=1;fontStyle=1;fontSize=14;" parent="y__F1TyNGtWhiDIaF_vZ-72" vertex="1">
          <mxGeometry width="102" height="70" as="geometry">
            <mxRectangle width="102" height="70" as="alternateBounds" />
          </mxGeometry>
        </mxCell>
        <mxCell id="y__F1TyNGtWhiDIaF_vZ-74" value="customer_id" style="shape=partialRectangle;html=1;whiteSpace=wrap;connectable=0;strokeColor=inherit;overflow=hidden;fillColor=none;top=0;left=0;bottom=0;right=0;pointerEvents=1;fontStyle=1;fontSize=14;" parent="y__F1TyNGtWhiDIaF_vZ-72" vertex="1">
          <mxGeometry x="102" width="122" height="70" as="geometry">
            <mxRectangle width="122" height="70" as="alternateBounds" />
          </mxGeometry>
        </mxCell>
        <mxCell id="y__F1TyNGtWhiDIaF_vZ-75" value="customer_name" style="shape=partialRectangle;html=1;whiteSpace=wrap;connectable=0;strokeColor=inherit;overflow=hidden;fillColor=none;top=0;left=0;bottom=0;right=0;pointerEvents=1;fontStyle=1;fontSize=14;" parent="y__F1TyNGtWhiDIaF_vZ-72" vertex="1">
          <mxGeometry x="224" width="137" height="70" as="geometry">
            <mxRectangle width="137" height="70" as="alternateBounds" />
          </mxGeometry>
        </mxCell>
        <mxCell id="y__F1TyNGtWhiDIaF_vZ-76" value="customer_address" style="shape=partialRectangle;html=1;whiteSpace=wrap;connectable=0;strokeColor=inherit;overflow=hidden;fillColor=none;top=0;left=0;bottom=0;right=0;pointerEvents=1;fontStyle=1;fontSize=14;" parent="y__F1TyNGtWhiDIaF_vZ-72" vertex="1">
          <mxGeometry x="361" width="144" height="70" as="geometry">
            <mxRectangle width="144" height="70" as="alternateBounds" />
          </mxGeometry>
        </mxCell>
        <mxCell id="y__F1TyNGtWhiDIaF_vZ-77" value="product_id" style="shape=partialRectangle;html=1;whiteSpace=wrap;connectable=0;strokeColor=inherit;overflow=hidden;fillColor=none;top=0;left=0;bottom=0;right=0;pointerEvents=1;fontStyle=1;fontSize=14;" parent="y__F1TyNGtWhiDIaF_vZ-72" vertex="1">
          <mxGeometry x="505" width="101" height="70" as="geometry">
            <mxRectangle width="101" height="70" as="alternateBounds" />
          </mxGeometry>
        </mxCell>
        <mxCell id="y__F1TyNGtWhiDIaF_vZ-78" value="product_name" style="shape=partialRectangle;html=1;whiteSpace=wrap;connectable=0;strokeColor=inherit;overflow=hidden;fillColor=none;top=0;left=0;bottom=0;right=0;pointerEvents=1;fontStyle=1;fontSize=14;" parent="y__F1TyNGtWhiDIaF_vZ-72" vertex="1">
          <mxGeometry x="606" width="120" height="70" as="geometry">
            <mxRectangle width="120" height="70" as="alternateBounds" />
          </mxGeometry>
        </mxCell>
        <mxCell id="y__F1TyNGtWhiDIaF_vZ-79" value="product_category" style="shape=partialRectangle;html=1;whiteSpace=wrap;connectable=0;strokeColor=inherit;overflow=hidden;fillColor=none;top=0;left=0;bottom=0;right=0;pointerEvents=1;fontStyle=1;fontSize=14;" parent="y__F1TyNGtWhiDIaF_vZ-72" vertex="1">
          <mxGeometry x="726" width="150" height="70" as="geometry">
            <mxRectangle width="150" height="70" as="alternateBounds" />
          </mxGeometry>
        </mxCell>
        <mxCell id="y__F1TyNGtWhiDIaF_vZ-80" value="quantity" style="shape=partialRectangle;html=1;whiteSpace=wrap;connectable=0;strokeColor=inherit;overflow=hidden;fillColor=none;top=0;left=0;bottom=0;right=0;pointerEvents=1;fontStyle=1;fontSize=14;" parent="y__F1TyNGtWhiDIaF_vZ-72" vertex="1">
          <mxGeometry x="876" width="92" height="70" as="geometry">
            <mxRectangle width="92" height="70" as="alternateBounds" />
          </mxGeometry>
        </mxCell>
        <mxCell id="y__F1TyNGtWhiDIaF_vZ-81" value="order_date" style="shape=partialRectangle;html=1;whiteSpace=wrap;connectable=0;strokeColor=inherit;overflow=hidden;fillColor=none;top=0;left=0;bottom=0;right=0;pointerEvents=1;fontStyle=1;fontSize=14;" parent="y__F1TyNGtWhiDIaF_vZ-72" vertex="1">
          <mxGeometry x="968" width="122" height="70" as="geometry">
            <mxRectangle width="122" height="70" as="alternateBounds" />
          </mxGeometry>
        </mxCell>
      </root>
    </mxGraphModel>
  </diagram>
</mxfile>
